<svg width="4520" height="763" xmlns="http://www.w3.org/2000/svg" stroke="null"
     style="vector-effect: non-scaling-stroke;">
    <g stroke="null" id="logo">
        <path stroke="null" transform="rotate(-90 382.00000000000006,381) translate(-380,-380) " fill="#1ec755"
              id="Combined-Shape"
              d="m453.94304,381l649.05696,0c21.5391,0 39,17.46089 39,39l0,316.67954l-250.61042,-250.61042l-509.38958,509.38959l0,-517.99954l188.16268,188.16268l84.2011,-84.20111l-200.42074,-200.42074zm-35.08063,0.05759l-36.80482,36.80482c1.07154,-19.83731 16.96751,-35.73328 36.80482,-36.80482zm723.13759,511.14902l0,194.40884l-333.08689,-333.08689l97.20442,-97.20442l235.88247,235.88247zm-89.36018,248.79339l-631.19815,0l315.59908,-315.59908l315.59907,315.59908z"/>
        <path stroke="null" transform="rotate(-90 309.50000000000006,456.5) translate(-307.5,-455.5) " fill="#ffffff"
              id="Combined-Shape-Copy"
              d="m383.56714,605.5l538.93286,0l-100.80724,104.81137l0,0c-0.09086,0.09447 -0.18219,0.18848 -0.274,0.28202l-0.3715,-0.3715l-388.22669,388.22669c-50.7425,50.42073 -91.18269,90.43787 -121.32057,120.05142c1.67816,-102.34785 1.86976,-274.37169 0.5748,-516.07152l187.82918,187.82918l84.21041,-84.21041l-200.54725,-200.54725zm-35.31413,0.07854l-36.4302,36.43019c1.23016,-19.5305 16.85192,-35.19456 36.4302,-36.43019z"/>
        <g stroke="null" id="text">
            <g transform="matrix(2.2769616609200236,0,0,2.2769616609200236,-181513.31385562362,-31126.524211063064) "
               fill-rule="evenodd" fill="none" id="svg_7">
                <g stroke="null" id="flatx">
                    <path stroke="null" fill="#ffffff" id="flat"
                          d="m80166.455318,13671.353285l0,333l73.13583,0l0,-137.58403l139.28417,0l0,-56.89916l-139.28417,0l0,-76.95378l160.7125,0l0,-61.56303l-233.84833,0zm276.23917,0l0,333l235.24583,0l0,-61.56302l-162.11,0l0,-271.43698l-73.13583,0zm360.08916,204.27731l86.17917,0l-41.925,-122.19328l-0.93167,0l-43.3225,122.19328zm6.9875,-204.27731l74.99917,0l124.3775,333l-75.93083,0l-25.155,-74.15546l-124.3775,0l-26.08667,74.15546l-73.60167,0l125.775,-333zm301.86,61.56303l0,271.43697l73.13584,0l0,-271.43697l99.68833,0l0,-61.56303l-272.5125,0l0,61.56303l99.68833,0z"/>
                    <polygon stroke="null"
                             points="81497.50701522827,13829.923828125 81381.45232772827,14004.3525390625 81463.48357772827,14004.3525390625 81537.58514022827,13889.1552734375 81610.29607772827,14004.3525390625 81697.45232772827,14004.3525390625 81581.39764022827,13830.390625 81688.13201522827,13671.3525390625 81607.96795272827,13671.3525390625 81540.38201522827,13777.6884765625 81475.13201522827,13671.3525390625 81390.31170272827,13671.3525390625 "
                             fill="#1ec755" id="x"/>
                </g>
            </g>
        </g>
    </g>
</svg>
